<svg xmlns="http://www.w3.org/2000/svg" width="1180" height="650" viewBox="0 0 1180 650" role="img" aria-labelledby="t d">
<title id="t">Failure-reuse latency versus source-result date</title>
<desc id="d">Fourteen source-to-successor-freeze intervals from retained BIG artifacts. No monotonic shortening is detected.</desc>
<style>
.axis{font:13px Arial,Helvetica,sans-serif;fill:#333}.lab{font:11px Arial,Helvetica,sans-serif;fill:#111}
.head{font:24px Arial,Helvetica,sans-serif;font-weight:700;fill:#111}.sub{font:13px Arial,Helvetica,sans-serif;fill:#444}
.grid{stroke:#ddd;stroke-width:1}.frame{stroke:#222;stroke-width:1.5;fill:none}.median{stroke:#555;stroke-width:1.5;stroke-dasharray:7 5}
</style>
<rect width="1180" height="650" fill="white"/>
<text x="590" y="36" text-anchor="middle" class="head">Observed source-to-successor freeze latency</text>
<text x="590" y="61" text-anchor="middle" class="sub">14 comparable retained-artifact transitions · chronology is UTC</text>
<line x1="178.1" y1="90" x2="178.1" y2="520" class="grid"/><text x="178.1" y="548" text-anchor="middle" class="axis">Sep 25</text>
<line x1="350.5" y1="90" x2="350.5" y2="520" class="grid"/><text x="350.5" y="548" text-anchor="middle" class="axis">Sep 27</text>
<line x1="522.9" y1="90" x2="522.9" y2="520" class="grid"/><text x="522.9" y="548" text-anchor="middle" class="axis">Sep 29</text>
<line x1="695.2" y1="90" x2="695.2" y2="520" class="grid"/><text x="695.2" y="548" text-anchor="middle" class="axis">Oct 1</text>
<line x1="867.6" y1="90" x2="867.6" y2="520" class="grid"/><text x="867.6" y="548" text-anchor="middle" class="axis">Oct 3</text>
<line x1="1040.0" y1="90" x2="1040.0" y2="520" class="grid"/><text x="1040.0" y="548" text-anchor="middle" class="axis">Oct 5</text>
<line x1="135" y1="520.0" x2="1040" y2="520.0" class="grid"/><text x="120" y="524.0" text-anchor="end" class="axis">0</text>
<line x1="135" y1="448.3" x2="1040" y2="448.3" class="grid"/><text x="120" y="452.3" text-anchor="end" class="axis">1</text>
<line x1="135" y1="376.7" x2="1040" y2="376.7" class="grid"/><text x="120" y="380.7" text-anchor="end" class="axis">2</text>
<line x1="135" y1="305.0" x2="1040" y2="305.0" class="grid"/><text x="120" y="309.0" text-anchor="end" class="axis">3</text>
<line x1="135" y1="233.3" x2="1040" y2="233.3" class="grid"/><text x="120" y="237.3" text-anchor="end" class="axis">4</text>
<line x1="135" y1="161.7" x2="1040" y2="161.7" class="grid"/><text x="120" y="165.7" text-anchor="end" class="axis">5</text>
<line x1="135" y1="90.0" x2="1040" y2="90.0" class="grid"/><text x="120" y="94.0" text-anchor="end" class="axis">6</text>

<rect x="135" y="90" width="905" height="430" class="frame"/>
<line x1="135" y1="434.1" x2="1040" y2="434.1" class="median"/>
<text x="1036" y="427.1" text-anchor="end" class="sub">median 1.20 h</text>
<circle cx="175.1" cy="496.5" r="5.2" fill="#222"/>
<circle cx="249.1" cy="372.5" r="5.2" fill="#222"/>
<circle cx="264.0" cy="470.4" r="5.2" fill="#222"/>
<circle cx="493.4" cy="141.1" r="5.2" fill="#222"/>
<circle cx="534.4" cy="380.0" r="5.2" fill="#222"/>
<circle cx="558.2" cy="505.3" r="5.2" fill="#222"/>
<circle cx="575.7" cy="471.3" r="5.2" fill="#222"/>
<circle cx="578.8" cy="489.1" r="5.2" fill="#222"/>
<circle cx="581.1" cy="173.1" r="5.2" fill="#222"/>
<circle cx="745.7" cy="401.5" r="5.2" fill="#222"/>
<circle cx="752.2" cy="109.2" r="5.2" fill="#222"/>
<circle cx="872.5" cy="462.1" r="5.2" fill="#222"/>
<circle cx="996.3" cy="406.1" r="5.2" fill="#222"/>
<circle cx="1006.2" cy="491.7" r="5.2" fill="#222"/>
<text x="183.1" y="488.5" class="lab">B25.1</text>
<text x="257.1" y="364.5" class="lab">B25.2</text>
<text x="272.0" y="486.4" class="lab">B26</text>
<text x="501.4" y="133.1" class="lab">B27.2</text>
<text x="542.4" y="372.0" class="lab">B29-T1</text>
<text x="566.2" y="521.3" class="lab">B32.1</text>
<text x="583.7" y="463.3" class="lab">B35.1</text>
<text x="586.8" y="507.1" class="lab">B35.2</text>
<text x="589.1" y="165.1" class="lab">B36.1</text>
<text x="753.7" y="417.5" class="lab">B37.1</text>
<text x="760.2" y="101.2" class="lab">B37.2</text>
<text x="880.5" y="454.1" class="lab">B39.3-P1</text>
<text x="1004.3" y="398.1" class="lab">B40.1</text>
<text x="1014.2" y="508.7" class="lab">B40.2</text>

<text x="28" y="305" transform="rotate(-90 28 305)" text-anchor="middle" class="axis">Latency to successor freeze (hours)</text>
<text x="590" y="586" text-anchor="middle" class="sub">Spearman rho = 0.051, p = 0.864 · no evidence of monotonic shortening</text>
<text x="590" y="609" text-anchor="middle" class="sub">Median 1.20 h · IQR 0.49–2.03 h · range 0.20–5.73 h</text>
<text x="590" y="632" text-anchor="middle" class="sub">Timestamps: retained Drive artifact metadata; B27.2→B28 uses public GitHub successor-freeze timestamp.</text>
</svg>